<svg id="Layer_1" data-name="Layer 1" xmlns="http://www.w3.org/2000/svg" viewBox="0 0 300 211"><defs><style>.cls-1{fill:#b3b3b3;}</style></defs><path class="cls-1" d="M546.5,258.5a21,21,0,0,1,0-42h257a21,21,0,0,1,0,42Z" transform="translate(-525 -216)"/><path d="M803.5,217a20.5,20.5,0,0,1,0,41h-257a20.5,20.5,0,0,1,0-41h257m0-1h-257a21.5,21.5,0,0,0,0,43h257a21.5,21.5,0,0,0,0-43Z" transform="translate(-525 -216)"/><path class="cls-1" d="M546.5,426.5a21,21,0,0,1,0-42h257a21,21,0,0,1,0,42Z" transform="translate(-525 -216)"/><path d="M803.5,385a20.5,20.5,0,0,1,0,41h-257a20.5,20.5,0,0,1,0-41h257m0-1h-257A21.51,21.51,0,0,0,525,405.5h0A21.51,21.51,0,0,0,546.5,427h257A21.51,21.51,0,0,0,825,405.5h0A21.51,21.51,0,0,0,803.5,384Z" transform="translate(-525 -216)"/><path class="cls-1" d="M546.5,344.5a21,21,0,0,1,0-42h257a21,21,0,0,1,0,42Z" transform="translate(-525 -216)"/><path d="M803.5,303a20.5,20.5,0,0,1,0,41h-257a20.5,20.5,0,0,1,0-41h257m0-1h-257A21.51,21.51,0,0,0,525,323.5h0A21.51,21.51,0,0,0,546.5,345h257A21.51,21.51,0,0,0,825,323.5h0A21.51,21.51,0,0,0,803.5,302Z" transform="translate(-525 -216)"/></svg>