<svg id="Layer_1" data-name="Layer 1" xmlns="http://www.w3.org/2000/svg" viewBox="0 0 327.5 178"><defs><style>.cls-1{fill:#fff;}.cls-2{font-size:104px;font-family:MyriadPro-Regular, Myriad Pro;letter-spacing:0.21em;}.cls-3{letter-spacing:0.21em;}.cls-4{letter-spacing:0.2em;}.cls-5{letter-spacing:0.23em;}</style></defs><rect class="cls-1" x="0.5" y="0.5" width="326.5" height="177" rx="31.88"/><path d="M814.38,213a31.4,31.4,0,0,1,31.37,31.38V357.62A31.4,31.4,0,0,1,814.38,389H551.62a31.4,31.4,0,0,1-31.37-31.38V244.38A31.4,31.4,0,0,1,551.62,213H814.38m0-1H551.62a32.37,32.37,0,0,0-32.37,32.38V357.62A32.37,32.37,0,0,0,551.62,390H814.38a32.37,32.37,0,0,0,32.37-32.38V244.38A32.37,32.37,0,0,0,814.38,212Z" transform="translate(-519.25 -212)"/><text class="cls-2" transform="translate(51.25 121.84)">I<tspan class="cls-3" x="46.25" y="0">R</tspan><tspan class="cls-4" x="124.39" y="0">I</tspan><tspan class="cls-5" x="170.01" y="0">S</tspan></text></svg>